<?xml version="1.0" encoding="utf-8"?>
<!-- Generator: Adobe Illustrator 21.0.2, SVG Export Plug-In . SVG Version: 6.00 Build 0)  -->
<!DOCTYPE svg PUBLIC "-//W3C//DTD SVG 1.1//EN" "http://www.w3.org/Graphics/SVG/1.1/DTD/svg11.dtd">
<svg version="1.1" id="Layer_1" xmlns="http://www.w3.org/2000/svg" xmlns:xlink="http://www.w3.org/1999/xlink" x="0px" y="0px"
	 viewBox="0 0 396 144" style="enable-background:new 0 0 396 144;" xml:space="preserve">
<style type="text/css">
	.st0{fill:#C1A469;}
</style>
<g>
	<path class="st0" d="M287.5,70.9c-12-27.5-48.1-46-89.8-46c-41.7,0-77.8,18.5-89.8,46l-0.4,0.9l0.4,0.9c12,27.5,48.1,46,89.8,46
		c41.7,0,77.8-18.5,89.8-46l0.4-0.9L287.5,70.9z M197.7,114.2c-38.8,0-73.6-17.4-85.2-42.4c11.6-25,46.4-42.4,85.2-42.4
		c38.8,0,73.6,17.4,85.2,42.4C271.4,96.8,236.6,114.2,197.7,114.2z"/>
	<path class="st0" d="M197.7,43.6c-15.6,0-28.3,12.7-28.3,28.2s12.7,28.2,28.3,28.2c15.6,0,28.2-12.7,28.2-28.2
		S213.3,43.6,197.7,43.6z M197.7,95.5c-13.1,0-23.7-10.6-23.7-23.7c0-13.1,10.6-23.7,23.7-23.7c13.1,0,23.7,10.6,23.7,23.7
		C221.5,84.9,210.8,95.5,197.7,95.5z"/>
	<path class="st0" d="M197.7,58.5c-7.4,0-13.4,6-13.4,13.3c0,7.4,6,13.3,13.4,13.3c7.4,0,13.3-6,13.3-13.3
		C211.1,64.5,205.1,58.5,197.7,58.5z M197.7,80.6c-4.9,0-8.8-3.9-8.8-8.8c0-4.9,4-8.8,8.8-8.8c4.8,0,8.8,3.9,8.8,8.8
		C206.5,76.7,202.6,80.6,197.7,80.6z"/>
</g>
</svg>
