<?xml version="1.0" encoding="utf-8"?>
<!-- Generator: Adobe Illustrator 21.0.2, SVG Export Plug-In . SVG Version: 6.00 Build 0)  -->
<!DOCTYPE svg PUBLIC "-//W3C//DTD SVG 1.1//EN" "http://www.w3.org/Graphics/SVG/1.1/DTD/svg11.dtd">
<svg version="1.1" id="Layer_1" xmlns="http://www.w3.org/2000/svg" xmlns:xlink="http://www.w3.org/1999/xlink" x="0px" y="0px"
	 viewBox="0 0 396 144" style="enable-background:new 0 0 396 144;" xml:space="preserve">
<style type="text/css">
	.st0{fill:#C1A469;}
</style>
<path class="st0" d="M214.7,6.8c-2.2,0.6-7.5,2.1-8.8,2.4c-0.2,0-0.3,0.2-0.4,0.3c-1.4,2.6-4.2,5.6-7.4,5.6c-3.2,0-6-3.1-7.4-5.6
	c-0.1-0.2-0.2-0.3-0.4-0.3l-8.8-2.4c-0.5-0.1-0.9,0.3-0.8,0.8c0.2,1,0.6,2.2,1,3.3c1.2,0.2,2.2,0.3,2.2,0.3s-0.9,0.7-1.5,1.2
	c0.5,1,1.1,1.9,1.8,2.8c0.6-0.3,1.1-0.5,1.1-0.5s-0.2,0.6-0.4,1.2c0.8,0.9,1.8,1.7,2.9,2.4c0.3-0.2,0.4-0.4,0.4-0.4s0,0.3,0,0.6
	c1.2,0.7,2.5,1.3,4.1,1.7c0.2-0.3,0.4-0.4,0.4-0.4s0,0.2,0.1,0.6c0.3,0.1,0.5,0.1,0.8,0.2c0.3,0.1,0.5,0.3,0.5,0.6v2.5
	c0,0.2,0.1,0.5,0.3,0.6l3.4,1.9c0.2,0.1,0.4,0.1,0.6,0l3.4-1.9c0.2-0.1,0.3-0.3,0.3-0.6v-2.5c0-0.3,0.2-0.6,0.5-0.6
	c0.3-0.1,0.6-0.1,0.8-0.2c0-0.3,0.1-0.6,0.1-0.6s0.1,0.2,0.4,0.4c1.6-0.4,2.9-1,4.1-1.7c0-0.3,0-0.6,0-0.6s0.2,0.1,0.4,0.4
	c1.1-0.7,2.1-1.5,2.9-2.4c-0.2-0.6-0.4-1.2-0.4-1.2s0.5,0.2,1.1,0.5c0.7-0.9,1.3-1.9,1.8-2.8c-0.6-0.5-1.5-1.2-1.5-1.2
	s1-0.2,2.2-0.3c0.5-1.1,0.8-2.3,1-3.3C215.6,7.1,215.1,6.7,214.7,6.8z"/>
<path class="st0" d="M234.4,117.6c-0.7-0.6-1.4-1.4-1.4-2.6c0-0.5-0.1-3.6-0.1-5.3c0-5.4,0-13.5,0-22.3c0-1.7,1.3-3.2,2.3-4.1
	c0.5-0.5,0.5-1.4,0-1.9c-1-0.9-2.3-2.4-2.3-4.1c0-16.6,0-32.9,0-35.8c0-1.7,0-2.4,1.2-3.4c0.2-0.1,0.5-0.2,0.8-0.4
	c0.6-0.4,0.8-1,0.6-1.5c-0.2-0.4-0.7-0.7-1.2-0.8c-4.5-0.2-7.1-0.6-10.8-1.2c-2.1-0.3-4.2-0.7-6.3-1.2c-2.1-0.5-4-1.1-5.6-1.9
	c-1.6-0.8-2.9-1.6-3.9-2.6c-0.1-0.1-0.2-0.2-0.3-0.3c-1.1-1.2-2.9-1.4-4.3-0.5c-1.3,0.9-2.9,1.7-4.9,2.5l0,0l0,0
	c-1.9-0.8-3.5-1.6-4.9-2.5c-1.4-0.9-3.2-0.7-4.3,0.5c-0.1,0.1-0.2,0.2-0.3,0.3c-1,1-2.3,1.9-3.9,2.6c-1.6,0.8-3.5,1.4-5.6,1.9
	c-2.1,0.5-4.2,0.9-6.3,1.2c-3.8,0.6-6.3,0.9-10.8,1.2c-0.5,0-1,0.4-1.2,0.8c-0.2,0.5,0,1.2,0.6,1.5c0.3,0.2,0.5,0.3,0.8,0.4
	c1.2,0.9,1.2,1.7,1.2,3.4c0,3,0,19.4,0,36.2c-0.2,1.6-1.3,2.9-2.3,3.7c-0.5,0.5-0.5,1.4,0,1.9c0.9,0.8,2.1,2.2,2.3,3.7
	c0,10,0,19.2,0,24.6c0,1.5-0.1,3.1-0.1,3.4c0,1.2-0.7,2-1.4,2.6c-0.7,0.7-1.9,1.8-0.4,2.9c0,0,0.1,0.1,0.1,0.1
	c0.1,0.2,0.3,0.3,0.5,0.5c2,1.3,7.6,4.5,9.8,6.1c4.2,3.1,8.6,6.7,9.8,8c1,1.1,2.2,2.6,4.8,2.2c0.6,0,1.2-0.2,1.8-0.5
	c0.6-0.2,1.1-0.5,1.5-0.7c2.6-1.3,5.4-2.6,8.3-3.8c0,0,5.7,2.5,8.4,3.9c0.3,0.2,0.7,0.4,1.1,0.6c0.1,0,0.1,0.1,0.2,0.1
	c0.6,0.3,1.2,0.5,1.9,0.5c2.5,0.3,3.7-1.2,4.8-2.2c1.3-1.3,5.6-4.9,9.8-8c2.2-1.7,7.8-4.8,9.8-6.1c0.2-0.2,0.4-0.3,0.6-0.5
	c0,0,0.1,0,0.1-0.1C236.3,119.4,235.1,118.2,234.4,117.6z M184.7,82.2L184.7,82.2v0.1V82.2z M211.4,77.6c-0.2,1.6-1.3,2.9-2.3,3.7
	c-0.5,0.5-0.5,1.4,0,1.9c0.9,0.8,2.1,2.2,2.3,3.7v29.2c0,3.3-0.4,4.2-3.2,6.9c-3.2,3.1-10,6.2-10.1,6.3c-0.2-0.1-6.9-3.2-10.1-6.3
	c-2.8-2.7-3.2-3.6-3.2-6.9V92.9l0,0c0,0,0-3.4,0-5.6c0-1.7,1.3-3.3,2.3-4.2c0.5-0.5,0.5-1.4,0-1.9c-1-0.9-2.3-2.4-2.3-4.2
	c0-2.2,0-5.6,0-5.6l0,0V44.9c0-2.6,1.4-4.9,3.7-6.2l9.6-5.3l9.6,5.3c2.3,1.2,3.7,3.6,3.7,6.2V77.6z"/>
</svg>
