<?xml version="1.0" encoding="utf-8"?>
<!-- Generator: Adobe Illustrator 23.1.1, SVG Export Plug-In . SVG Version: 6.00 Build 0)  -->
<svg version="1.1" id="Layer_1" xmlns="http://www.w3.org/2000/svg" xmlns:xlink="http://www.w3.org/1999/xlink" x="0px" y="0px"
	 viewBox="0 0 100 90" style="enable-background:new 0 0 100 90;" xml:space="preserve">
<g>
	<path d="M9,33.3h8c2,0,3.5-1.6,3.5-3.6c0-0.2,0-0.5-0.1-0.7c-0.4-1.6-1.9-2.8-3.5-2.8H9c-0.3,0-0.5,0.2-0.5,0.5v6
		C8.5,33.1,8.7,33.3,9,33.3z" fill="#c1a468"/>
	<path d="M9,17.7h5.1c1.9,0,3.5-1.6,3.5-3.5c0-0.2,0-0.5-0.1-0.7c-0.4-1.7-1.9-2.8-3.5-2.8H9c-0.3,0-0.5,0.2-0.5,0.5c0,0,0,0,0,0v6
		C8.5,17.4,8.7,17.7,9,17.7z" fill="#c1a468"/>
	<path d="M44.1,33.3h8c1.9,0,3.5-1.6,3.5-3.5c0-0.2,0-0.5-0.1-0.7c-0.4-1.7-1.9-2.8-3.5-2.8h-7.9c-0.3,0-0.5,0.2-0.5,0.5l0,0v6
		C43.6,33.1,43.8,33.3,44.1,33.3C44.1,33.3,44.1,33.3,44.1,33.3z" fill="#c1a468"/>
	<path d="M44.1,17.7h5.1c2,0,3.5-1.6,3.5-3.6c0-0.2,0-0.5-0.1-0.7c-0.4-1.7-1.9-2.8-3.6-2.8h-5c-0.3,0-0.5,0.2-0.5,0.5c0,0,0,0,0,0
		v6C43.6,17.4,43.8,17.7,44.1,17.7L44.1,17.7z" fill="#c1a468"/>
	<path d="M99.2,47.1L61.5,9.4c-0.2-0.2-0.5-0.2-0.7,0c-0.2,0.1-0.2,0.4-0.1,0.6c0.5,1.3,0.7,2.7,0.7,4.2c0,2-0.5,4-1.5,5.7
		c-0.1,0.2-0.1,0.5,0.1,0.7c2.7,2.3,4.3,5.7,4.3,9.3c-0.2,6.8-5.8,12.1-12.5,12.1H35.5c-0.3,0-0.5-0.2-0.5-0.5l0,0V2.5
		C35,2.2,34.7,2,34.4,2H19.2c-0.3,0-0.5,0.3-0.5,0.6c0,0.2,0.1,0.4,0.3,0.5c4.4,1.9,7.3,6.3,7.3,11.1c0,2-0.5,4-1.5,5.8
		c-0.1,0.2-0.1,0.5,0.1,0.7c2.7,2.3,4.3,5.7,4.2,9.3c-0.2,6.8-5.8,12.1-12.5,12H1.2c-0.3,0-0.5,0.2-0.5,0.5c0,0.1,0.1,0.3,0.2,0.4
		L45,87.1c0.2,0.2,0.6,0.2,0.8,0c0.1-0.1,0.2-0.2,0.2-0.4V57.2c0-0.3-0.2-0.5-0.5-0.5c0,0,0,0,0,0h-9.7c-0.3,0-0.5-0.2-0.5-0.5v-7.5
		c0-0.3,0.2-0.5,0.5-0.5h29.2c0.3,0,0.5,0.2,0.5,0.5v7.5c0,0.3-0.2,0.5-0.5,0.5H55c-0.3,0-0.5,0.2-0.5,0.5c0,0,0,0,0,0v30.3
		c0,0.3,0.2,0.5,0.5,0.5c0,0,0,0,0,0h23.9c0.3,0,0.5-0.2,0.5-0.5c0-0.1,0-0.1,0-0.2L68.2,48.7c-0.1-0.3,0.1-0.6,0.4-0.7
		c0,0,0.1,0,0.1,0h7.9c0.2,0,0.4,0.2,0.5,0.4l6.5,22.3c0.1,0.3,0.4,0.4,0.7,0.4c0.2-0.1,0.3-0.2,0.4-0.4l6.5-22.3
		c0.1-0.2,0.3-0.4,0.5-0.4h7.2c0.3,0,0.5-0.2,0.5-0.5C99.4,47.4,99.3,47.2,99.2,47.1z" fill="#c1a468"/>
</g>
</svg>
